<svg xmlns="http://www.w3.org/2000/svg" version="1.1" xmlns:xlink="http://www.w3.org/1999/xlink" xmlns:svgjs="http://svgjs.dev/svgjs" width="1000" height="265" viewBox="0 0 500 265"><g transform="matrix(1,0,0,1,-0.6060582942436099,-0.5987364290091932)"><svg viewBox="0 0 396 105" data-background-color="#ffffff" preserveAspectRatio="xMidYMid meet" height="265" width="1000" xmlns="http://www.w3.org/2000/svg" xmlns:xlink="http://www.w3.org/1999/xlink"><g id="tight-bounds" transform="matrix(1,0,0,1,0.2399991751495918,0.2372352494783172)"><svg viewBox="0 0 395.52 104.52552956166905" height="104.52552956166905" width="395.52"><g><svg viewBox="0 0 629.598869020731 166.38641584703635" height="104.52552956166905" width="395.52"><g><rect width="10.857379661264032" height="144.47445659655833" x="423.9424598462409" y="10.95597962523901" fill="#bb84e8" opacity="1" stroke-width="0" stroke="transparent" fill-opacity="1" class="rect-o-0" data-fill-palette-color="primary" rx="1%" id="o-0" data-palette-color="#bb84e8"></rect></g><g transform="matrix(1,0,0,1,0,22.995517674952204)"><svg viewBox="0 0 395.52 120.39538049713194" height="120.39538049713194" width="395.52"><g id="textblocktransform"><svg viewBox="0 0 395.52 120.39538049713194" height="120.39538049713194" width="395.52" id="textblock"><g><svg viewBox="0 0 395.52 120.39538049713194" height="120.39538049713194" width="395.52"><g transform="matrix(1,0,0,1,0,0)"><svg width="395.52" viewBox="1.4500000476837158 -38.849998474121094 130.72999572753906 39.79999923706055" height="120.39538049713194" data-palette-color="#bb84e8">
    <path d="M8 0.7Q6.15 0.7 6.15-3.1L6.15-3.1Q6.15-5.5 4.08-20.28 2-35.05 1.45-36.4L1.45-36.4Q2.1-37.6 3.2-37.6L3.2-37.6Q4.35-37.6 5.35-32.4L5.35-32.4Q6.3-26.9 6.95-19.8L6.95-19.8 7.3-15.75Q7.6-12.35 7.65-12.3L7.65-12.3 8.15-16.5 8.45-19.1Q9.1-24.8 9.3-27.15L9.3-27.15Q9.55-30.25 9.55-31.4L9.55-31.4 9.55-32.35Q9.55-32.9 9.95-33.4 10.35-33.9 10.85-33.9L10.85-33.9Q12.65-33.9 12.65-32.4L12.65-32.4 12.65-31.65Q12.65-28.8 13.23-25.53 13.8-22.25 14.9-17.7L14.9-17.7Q15.6-15.05 16.3-11.25L16.3-11.25Q16.45-12.9 17.25-19.25L17.25-19.25Q18.05-25.05 18.43-29.13 18.8-33.2 18.8-36.75L18.8-36.75Q18.8-37.9 19.18-38.38 19.55-38.85 20.6-38.85L20.6-38.85Q21.2-38.85 21.68-38.48 22.15-38.1 22.15-37.5L22.15-37.5Q22.15-36.95 21.65-36.35L21.65-36.35Q21.65-32.75 21.1-27.93 20.55-23.1 19.75-18.75L19.75-18.75Q18.95-14.5 18.4-9.63 17.85-4.75 17.85-1.05L17.85-1.05Q17.85-0.25 17.48 0.23 17.1 0.7 16.35 0.7L16.35 0.7Q15.8 0.7 15.05-1.35L15.05-1.35Q14.1-4.2 12.7-12.7L12.7-12.7 11.8-18.55 11.35-21.8Q10.7-17.25 10.38-14.48 10.05-11.7 9.75-7.9L9.75-7.9Q9.4-4.25 9.4-0.7L9.4-0.7Q9.4-0.2 8.97 0.25 8.55 0.7 8 0.7L8 0.7ZM30.05 0.65Q29.4 0.65 28.87 0.2 28.35-0.25 28.3-0.9L28.3-0.9 28.3-2.2 28.3-3.2Q28.25-3.65 28.25-4.25L28.25-4.25Q28.25-5.3 28.1-7.45L28.1-7.45 28-10.65Q28-13.1 28.15-17.95L28.15-17.95Q28.35-22.3 28.35-25.25L28.35-25.25Q28.35-25.95 28.2-27.35L28.2-27.35Q28.05-28.8 28.05-29.45L28.05-29.45Q28.05-33 30.15-33L30.15-33Q31.8-33 33.97-32.35 36.15-31.7 36.15-30.8L36.15-30.8Q36.15-30.3 35.72-29.88 35.3-29.45 34.7-29.2L34.7-29.2Q32.6-29.95 30.9-30.2L30.9-30.2Q30.95-29.45 30.95-28.05L30.95-28.05Q30.95-26.05 30.9-24.45L30.9-24.45Q30.75-22.05 30.75-20.85L30.75-20.85 30.9-20.05 31.7-20.1Q32.1-20.15 32.7-20.15L32.7-20.15Q35.1-20.15 35.1-18.75L35.1-18.75Q35.1-18.2 34.65-17.82 34.2-17.45 33.5-17.45L33.5-17.45Q32.6-17.45 32.1-17.55L32.1-17.55 30.85-17.55Q30.95-16.25 30.95-13.75L30.95-13.75Q30.95-11.25 30.9-9.25L30.9-9.25Q30.75-6.2 30.75-4.7L30.75-4.7Q30.75-1.9 30.85-1.9L30.85-1.9 32.5-1.95Q33.35-2 34.55-2L34.55-2Q36.45-2 36.45-0.8L36.45-0.8Q36.45-0.1 35.82 0.28 35.2 0.65 34.3 0.65L34.3 0.65 30.05 0.65ZM43.4 0.5Q42.3 0.5 42.05-0.45L42.05-0.45Q41.85-1.05 41.85-2.15L41.85-2.15Q41.85-4.3 42.05-7.45L42.05-7.45Q42.3-10.45 42.3-12.8L42.3-12.8Q42.3-15.45 42.45-20.75L42.45-20.75 42.55-28.65Q42.55-29.1 42.4-30L42.4-30 42.25-31.25 42.25-31.5Q42.25-32.65 42.6-33.2 42.95-33.75 43.9-33.75L43.9-33.75Q45.2-33.75 46.75-33 48.3-32.25 49-31.1L49-31.1Q50.45-28.7 50.45-25.1L50.45-25.1Q50.45-22.4 50-20.58 49.55-18.75 48.45-17.2L48.45-17.2Q49.8-15.9 50.27-13.88 50.75-11.85 50.75-8.8L50.75-8.8Q50.75-5.75 49.7-3.5L49.7-3.5Q48.5-0.95 46.2 0L46.2 0Q44.8 0.5 43.4 0.5L43.4 0.5ZM45-18.65Q47.6-18.7 47.6-24.7L47.6-24.7Q47.6-31.15 45.55-31.45L45.55-31.45Q45-30.3 45-26.05L45-26.05 45-18.65ZM44.7-2.05Q46.3-2.4 47.2-3.95 48.1-5.5 48.1-7.5L48.1-7.5Q48.1-9.6 47.85-11.2L47.85-11.2Q47.65-12.45 47.32-13.28 47-14.1 46.45-14.8L46.45-14.8Q45.85-15.55 45.05-15.7L45.05-15.7Q44.85-12.85 44.85-8.15L44.85-8.15Q44.85-7.85 44.75-6.25L44.75-6.25 44.65-4.55Q44.65-4.45 44.7-4.4L44.7-4.4 44.7-4.3 44.7-2.05ZM72.19 0.8Q70.79 0.8 69.62 0.15 68.44-0.5 67.59-1.6L67.59-1.6Q66.84-2.65 66.24-4.28 65.64-5.9 65.34-7.65L65.34-7.65Q64.74-10.6 64.54-15.4L64.54-15.4Q64.49-16.55 64.49-19.35L64.49-19.35 64.49-22.5Q64.54-23.85 64.54-25.3L64.54-25.3Q64.54-28.25 64.89-29.95L64.89-29.95Q64.74-30.7 64.74-31.5L64.74-31.5Q64.74-34.5 66.99-36.35 69.24-38.2 72.69-38.2L72.69-38.2Q73.99-38.2 75.09-37.5 76.19-36.8 76.19-35.75L76.19-35.75Q76.19-35.25 75.79-34.95 75.39-34.65 74.79-34.65L74.79-34.65Q74.29-34.65 73.72-34.8 73.14-34.95 72.99-35.25L72.99-35.25 72.34-35.25 72.34-35.35Q70.49-35.35 69.24-34.55L69.24-34.55Q68.34-33.9 67.84-32.4L67.84-32.4Q67.64-31.85 67.54-31 67.44-30.15 67.44-29.45L67.44-29.45Q67.39-29.05 67.39-27.85L67.39-27.85 67.49-26.1 67.54-24.4Q67.54-23.65 67.34-22.65L67.34-22.65Q67.09-21.4 67.09-20.9L67.09-20.9 67.09-19.7Q67.09-17.75 67.24-14.35L67.24-14.35Q67.29-11.5 67.89-8.65L67.89-8.65Q68.34-6 69.59-4.15L69.59-4.15Q70.79-2.25 72.84-2.25L72.84-2.25Q73.69-2.25 74.94-3.15L74.94-3.15Q76.29-4.05 76.84-4.05L76.84-4.05Q77.54-4.05 78.29-3.3L78.29-3.3Q78.29-1.45 76.89-0.45L76.89-0.45Q75.59 0.45 73.79 0.7L73.79 0.7Q72.79 0.8 72.19 0.8L72.19 0.8ZM90.94 0.85Q89.84 0.85 88.94-1.55L88.94-1.55Q87.89-4.15 87.39-6.9L87.39-6.9 87.04-8.6Q85.59-15.75 85.19-16.75L85.19-16.75 84.59-16.75Q84.59-15.3 84.54-14.1L84.54-14.1 84.54-11.35Q84.54-4.65 85.49-0.9L85.49-0.9 84.94 0.45 83.54 0.45 82.89-0.3 82.94-3.65Q82.94-8.15 82.49-17.3L82.49-17.3Q82.09-27.05 82.09-30.95L82.09-30.95Q82.09-33.35 83.74-33.35L83.74-33.35Q86.44-33.35 88.16-31.95 89.89-30.55 89.89-28.05L89.89-28.05 89.89-24.55Q89.89-23.8 89.64-22.83 89.39-21.85 89.09-21.25L89.09-21.25 88.14-19.45 87.34-17.95 87.59-16.75 88.29-13.2Q88.99-9.35 89.64-6.95 90.29-4.55 91.24-2.6L91.24-2.6 91.54-2Q92.04-1 92.04-0.4L92.04-0.4Q92.04 0.1 91.74 0.48 91.44 0.85 90.94 0.85L90.94 0.85ZM84.79-19.2Q85.89-19.75 86.66-22.23 87.44-24.7 87.44-26.8L87.44-26.8Q87.44-28.4 87.04-29.8L87.04-29.8Q86.79-30.6 86.21-31.03 85.64-31.45 84.79-31.45L84.79-31.45 84.69-31.2 84.59-30.75 84.69-24.85Q84.79-22.25 84.79-19.2L84.79-19.2ZM102.79 0.95Q101.49 0.95 100.39 0.13 99.29-0.7 98.59-2.1L98.59-2.1Q97.14-5.15 96.79-8.75L96.79-8.75Q96.34-12.15 96.34-15.3L96.34-15.3Q96.34-15.9 96.39-16.3L96.39-16.3 96.39-17.2Q96.39-17.45 96.34-17.45L96.34-17.45 96.34-18.35 96.39-21.85Q96.44-23.45 96.79-26.95L96.79-26.95Q97.04-29.35 97.94-31.6L97.94-31.6Q98.29-32.6 98.84-33.13 99.39-33.65 100.09-33.65L100.09-33.65Q102.09-33.65 103.69-32.93 105.29-32.2 106.39-30.9L106.39-30.9Q107.39-29.65 108.09-27.83 108.79-26 109.09-23.95L109.09-23.95Q109.39-21.85 109.39-19.5L109.39-19.5 109.39-19.1Q109.39-17.55 109.44-16.3L109.44-16.3 109.49-13.45Q109.49 0.95 102.79 0.95L102.79 0.95ZM102.59-1.15Q103.49-1.15 104.24-1.88 104.99-2.6 105.39-3.85L105.39-3.85Q106.34-6.4 106.54-9.35L106.54-9.35Q106.79-11.9 106.79-13.75L106.79-13.75Q106.79-16 106.44-19.65L106.44-19.65Q106.14-23.5 106.14-25.4L106.14-25.4 106.14-26.3Q106.04-28.2 104.86-29.6 103.69-31 101.99-31L101.99-31Q100.29-31 99.74-29.05L99.74-29.05Q99.24-27.5 99.24-25.05L99.24-25.05Q99.24-24.1 99.29-23.45L99.29-23.45 99.29-22.1 99.19-19.8Q99.09-18.75 99.09-17.5L99.09-17.5Q99.09-14.8 99.24-12.15L99.24-12.15Q99.44-8.4 100.24-4.85L100.24-4.85Q101.04-1.15 102.59-1.15L102.59-1.15ZM128.58 0.15Q127.98 0.15 127.68-0.18 127.38-0.5 127.23-1.3L127.23-1.3 126.93-2.25 126.93-2.35 126.93-2.5Q126.93-4.15 123.51-13.75 120.08-23.35 118.13-27.95L118.13-27.95 118.13-2.8 118.33-2.45Q118.38-2.35 118.53-2.1 118.68-1.85 118.68-1.6L118.68-1.6Q118.68-0.95 118.23-0.5 117.78-0.05 117.13-0.05L117.13-0.05Q115.53-0.05 115.53-3.1L115.53-3.1 115.48-11.65Q115.43-15.5 115.43-20.25L115.43-20.25Q115.43-21.85 115.58-24.9L115.58-24.9Q115.73-28.05 115.73-29.55L115.73-29.55Q115.73-31.9 117.53-33.25L117.53-33.25 117.53-32.95Q117.83-33.05 117.93-33.05L117.93-33.05Q119.08-33.05 120.83-29.05L120.83-29.05Q122.23-25.85 123.36-22.3 124.48-18.75 126.33-12.2L126.33-12.2 126.83-10.4Q127.98-6.35 128.58-4.6L128.58-4.6Q129.58-15.35 129.58-30L129.58-30 129.58-30.65Q129.53-30.95 129.53-31.3L129.53-31.3Q129.53-32.8 130.73-32.8L130.73-32.8Q131.43-32.8 131.81-32.25 132.18-31.7 132.18-30.85L132.18-30.85 132.18-27.1Q132.08-19.4 131.58-10.4 131.08-1.4 130.38-0.25L130.38-0.25Q128.93 0.15 128.58 0.15L128.58 0.15Z" opacity="1"  fill="#bb84e8" class="undefined-text-0" data-fill-palette-color="primary" id="text-0"></path></svg></g></svg></g></svg></g></svg></g></svg></g></svg></g></svg></g></svg>
